<svg width="20" height="20" viewBox="0 0 20 20" fill="none" xmlns="http://www.w3.org/2000/svg">
<path d="M5.054 14.148C5.054 14.148 9.622 13.521 11.572 11.572C13.522 9.623 14.148 5.054 14.148 5.054C14.148 5.054 9.579 5.681 7.63 7.63C5.681 9.579 5.054 14.148 5.054 14.148V14.148ZM8.617 8.615C9.435 7.797 11.002 7.215 12.346 6.853C11.985 8.195 11.401 9.773 10.586 10.585C10.4569 10.7146 10.3034 10.8174 10.1345 10.8875C9.96555 10.9576 9.78442 10.9937 9.6015 10.9937C9.41858 10.9937 9.23745 10.9576 9.06851 10.8875C8.89957 10.8174 8.74613 10.7146 8.617 10.585C8.48741 10.4558 8.38459 10.3023 8.31444 10.1332C8.24428 9.96421 8.20817 9.78301 8.20817 9.6C8.20817 9.41699 8.24428 9.23579 8.31444 9.06676C8.38459 8.89774 8.48741 8.74422 8.617 8.615V8.615ZM9.601 0C4.298 0 5.20936e-08 4.298 5.20936e-08 9.6C-0.000131294 10.8609 0.248116 12.1094 0.730565 13.2743C1.21301 14.4392 1.92021 15.4977 2.81177 16.3892C3.70334 17.2808 4.76179 17.988 5.9267 18.4704C7.09161 18.9529 8.34014 19.2011 9.601 19.201C14.902 19.201 19.201 14.903 19.201 9.6C19.201 4.298 14.902 0 9.601 0V0ZM9.6 17.2C8.60195 17.2 7.61368 17.0034 6.69161 16.6215C5.76953 16.2395 4.93171 15.6797 4.22599 14.974C3.52026 14.2683 2.96045 13.4305 2.57852 12.5084C2.19658 11.5863 2 10.598 2 9.6C2 8.60195 2.19658 7.61368 2.57852 6.69161C2.96045 5.76953 3.52026 4.93171 4.22599 4.22599C4.93171 3.52026 5.76953 2.96045 6.69161 2.57852C7.61368 2.19658 8.60195 2 9.6 2C10.598 2 11.5863 2.19658 12.5084 2.57852C13.4305 2.96045 14.2683 3.52026 14.974 4.22599C15.6797 4.93171 16.2395 5.76953 16.6215 6.69161C17.0034 7.61368 17.2 8.60195 17.2 9.6C17.2 10.598 17.0034 11.5863 16.6215 12.5084C16.2395 13.4305 15.6797 14.2683 14.974 14.974C14.2683 15.6797 13.4305 16.2395 12.5084 16.6215C11.5863 17.0034 10.598 17.2 9.6 17.2V17.2Z" fill="black"/>
</svg>
