<svg width="83" height="115" viewBox="0 0 83 115" fill="none" xmlns="http://www.w3.org/2000/svg">
<path d="M75.9727 50.5666L45.4056 2.00802C44.9621 1.38705 44.3763 0.880825 43.6969 0.531533C43.0175 0.182241 42.2643 0 41.5 0C40.7357 0 39.9825 0.182241 39.3031 0.531533C38.6237 0.880825 38.0379 1.38705 37.5944 2.00802L6.889 50.7966C2.62319 57.6611 0.246998 65.5263 0 73.5992C0 84.5794 4.37231 95.1098 12.1551 102.874C19.9378 110.638 30.4935 115 41.5 115C52.5065 115 63.0622 110.638 70.8449 102.874C78.6277 95.1098 83 84.5794 83 73.5992C82.7349 65.4377 80.3105 57.4914 75.9727 50.5666ZM41.5 105.8C32.9428 105.789 24.7392 102.393 18.6883 96.3564C12.6374 90.32 9.2332 82.136 9.22222 73.5992C9.46731 67.1664 11.4042 60.9111 14.8386 55.461L19.1499 48.6069L65.6023 94.9482C62.5853 98.3582 58.8762 101.089 54.721 102.961C50.5657 104.833 46.0592 105.802 41.5 105.804V105.8Z" fill="white"/>
</svg>
