<svg width="27" height="26" viewBox="0 0 27 26" fill="none" xmlns="http://www.w3.org/2000/svg">
<path fill-rule="evenodd" clip-rule="evenodd" d="M14.4544 0.40066C14.2013 0.144117 13.858 0 13.5 0C13.142 0 12.7987 0.144117 12.5456 0.40066L9.84555 3.13753C9.59964 3.39562 9.46356 3.74129 9.46664 4.10009C9.46972 4.45889 9.61169 4.80211 9.862 5.05583C10.1123 5.30955 10.4509 5.45347 10.8049 5.45659C11.1588 5.4597 11.4998 5.32177 11.7544 5.0725L12.15 4.67155V8.40601C12.15 9.05328 12.7548 9.57876 13.5 9.57876C14.2452 9.57876 14.85 9.05328 14.85 8.40601V4.67155L15.2456 5.0725C15.3701 5.2032 15.519 5.30745 15.6838 5.37917C15.8485 5.45089 16.0256 5.48864 16.2049 5.49022C16.3841 5.4918 16.5619 5.45717 16.7278 5.38837C16.8937 5.31956 17.0444 5.21795 17.1712 5.08946C17.2979 4.96098 17.3982 4.80819 17.4661 4.64001C17.5339 4.47184 17.5681 4.29164 17.5665 4.10994C17.565 3.92824 17.5277 3.74868 17.457 3.58172C17.3862 3.41477 17.2834 3.26377 17.1545 3.13753L14.4544 0.40066V0.40066ZM4.9086 12.3841C5.16321 12.6333 5.50423 12.7713 5.85819 12.7681C6.21216 12.765 6.55075 12.6211 6.80106 12.3674C7.05136 12.1137 7.19333 11.7704 7.19641 11.4116C7.19949 11.0528 7.06341 10.7072 6.8175 10.4491L5.86305 9.4816C5.60844 9.23233 5.26742 9.0944 4.91346 9.09752C4.55949 9.10064 4.2209 9.24455 3.9706 9.49827C3.72029 9.75199 3.57832 10.0952 3.57524 10.454C3.57216 10.8128 3.70824 11.1585 3.95415 11.4166L4.9086 12.3841V12.3841ZM23.0458 11.4166L22.0914 12.3841C21.8368 12.6333 21.4958 12.7713 21.1418 12.7681C20.7878 12.765 20.4492 12.6211 20.1989 12.3674C19.9486 12.1137 19.8067 11.7704 19.8036 11.4116C19.8005 11.0528 19.9366 10.7072 20.1825 10.4491L21.1369 9.4816C21.3916 9.23233 21.7326 9.0944 22.0865 9.09752C22.4405 9.10064 22.7791 9.24455 23.0294 9.49827C23.2797 9.75199 23.4217 10.0952 23.4248 10.454C23.4278 10.8128 23.2918 11.1585 23.0458 11.4166ZM8.1 19.1578C8.10005 18.2432 8.32621 17.3431 8.75781 16.5399C9.18941 15.7367 9.81269 15.0559 10.5707 14.5597C11.3287 14.0636 12.1973 13.7679 13.0971 13.6996C13.9969 13.6314 14.8993 13.7928 15.7217 14.1691C16.5441 14.5454 17.2604 15.1246 17.8051 15.8538C18.3498 16.583 18.7055 17.4389 18.8398 18.3434C18.9742 19.2478 18.8827 20.172 18.5739 21.0314C18.2651 21.8908 17.7488 22.6581 17.0721 23.2631H9.9279C9.35255 22.7501 8.89187 22.1185 8.57664 21.4105C8.26142 20.7026 8.09892 19.9346 8.1 19.1578V19.1578ZM9.4095 26H25.65C26.008 26 26.3514 25.8558 26.6046 25.5992C26.8578 25.3426 27 24.9945 27 24.6316C27 24.2686 26.8578 23.9206 26.6046 23.6639C26.3514 23.4073 26.008 23.2631 25.65 23.2631H20.516C21.2264 22.0149 21.6003 20.5992 21.6 19.1581C21.5997 17.717 21.2252 16.3014 20.5142 15.0535C19.8032 13.8056 18.7807 12.7694 17.5495 12.0489C16.3183 11.3285 14.9217 10.9492 13.5 10.9492C12.0783 10.9492 10.6817 11.3285 9.4505 12.0489C8.21926 12.7694 7.19677 13.8056 6.48577 15.0535C5.77477 16.3014 5.4003 17.717 5.4 19.1581C5.3997 20.5992 5.77357 22.0149 6.48405 23.2631H1.35C0.991958 23.2631 0.64858 23.4073 0.395406 23.6639C0.142232 23.9206 0 24.2686 0 24.6316C0 24.9945 0.142232 25.3426 0.395406 25.5992C0.64858 25.8558 0.991958 26 1.35 26H9.4095V26ZM2.7 20.5263C3.05804 20.5263 3.40142 20.3821 3.65459 20.1254C3.90777 19.8688 4.05 19.5207 4.05 19.1578C4.05 18.7949 3.90777 18.4468 3.65459 18.1902C3.40142 17.9336 3.05804 17.7894 2.7 17.7894H1.35C0.991958 17.7894 0.64858 17.9336 0.395406 18.1902C0.142232 18.4468 0 18.7949 0 19.1578C0 19.5207 0.142232 19.8688 0.395406 20.1254C0.64858 20.3821 0.991958 20.5263 1.35 20.5263H2.7ZM27 19.1578C27 19.5207 26.8578 19.8688 26.6046 20.1254C26.3514 20.3821 26.008 20.5263 25.65 20.5263H24.3C23.942 20.5263 23.5986 20.3821 23.3454 20.1254C23.0922 19.8688 22.95 19.5207 22.95 19.1578C22.95 18.7949 23.0922 18.4468 23.3454 18.1902C23.5986 17.9336 23.942 17.7894 24.3 17.7894H25.65C26.008 17.7894 26.3514 17.9336 26.6046 18.1902C26.8578 18.4468 27 18.7949 27 19.1578Z" fill="black"/>
</svg>
