<svg width="27" height="26" viewBox="0 0 27 26" fill="none" xmlns="http://www.w3.org/2000/svg">
<path fill-rule="evenodd" clip-rule="evenodd" d="M8.1 19.1579C8.10005 18.2433 8.32621 17.3432 8.75781 16.54C9.18941 15.7368 9.81269 15.056 10.5707 14.5599C11.3287 14.0637 12.1973 13.768 13.0971 13.6998C13.9969 13.6315 14.8993 13.7929 15.7217 14.1692C16.5441 14.5455 17.2604 15.1247 17.8051 15.8539C18.3498 16.5831 18.7055 17.439 18.8398 18.3435C18.9742 19.2479 18.8827 20.1721 18.5739 21.0315C18.2651 21.8909 17.7488 22.6581 17.0721 23.2632H9.9279C9.35255 22.7501 8.89187 22.1185 8.57664 21.4106C8.26142 20.7026 8.09892 19.9346 8.1 19.1579V19.1579ZM9.4095 26H25.65C26.008 26 26.3514 25.8558 26.6046 25.5992C26.8578 25.3426 27 24.9945 27 24.6316C27 24.2687 26.8578 23.9206 26.6046 23.664C26.3514 23.4073 26.008 23.2632 25.65 23.2632H20.516C21.2264 22.015 21.6003 20.5992 21.6 19.1582C21.5997 17.7171 21.2252 16.3015 20.5142 15.0536C19.8032 13.8058 18.7807 12.7695 17.5495 12.0491C16.3183 11.3287 14.9217 10.9494 13.5 10.9494C12.0783 10.9494 10.6817 11.3287 9.4505 12.0491C8.21926 12.7695 7.19677 13.8058 6.48577 15.0536C5.77477 16.3015 5.4003 17.7171 5.4 19.1582C5.3997 20.5992 5.77357 22.015 6.48405 23.2632H1.35C0.991958 23.2632 0.64858 23.4073 0.395406 23.664C0.142232 23.9206 0 24.2687 0 24.6316C0 24.9945 0.142232 25.3426 0.395406 25.5992C0.64858 25.8558 0.991958 26 1.35 26H9.4095V26ZM23.0458 9.48179C23.2989 9.73841 23.4411 10.0864 23.4411 10.4493C23.4411 10.8121 23.2989 11.1601 23.0458 11.4167L22.0914 12.3842C21.8368 12.6335 21.4958 12.7714 21.1418 12.7683C20.7878 12.7652 20.4492 12.6213 20.1989 12.3675C19.9486 12.1138 19.8067 11.7706 19.8036 11.4118C19.8005 11.053 19.9366 10.7074 20.1825 10.4493L21.1369 9.48179C21.3901 9.22525 21.7334 9.08113 22.0914 9.08113C22.4494 9.08113 22.7927 9.22525 23.0458 9.48179V9.48179ZM2.7 20.5263C3.05804 20.5263 3.40142 20.3821 3.65459 20.1255C3.90777 19.8689 4.05 19.5208 4.05 19.1579C4.05 18.795 3.90777 18.4469 3.65459 18.1903C3.40142 17.9336 3.05804 17.7895 2.7 17.7895H1.35C0.991958 17.7895 0.64858 17.9336 0.395406 18.1903C0.142232 18.4469 0 18.795 0 19.1579C0 19.5208 0.142232 19.8689 0.395406 20.1255C0.64858 20.3821 0.991958 20.5263 1.35 20.5263H2.7ZM27 19.1579C27 19.5208 26.8578 19.8689 26.6046 20.1255C26.3514 20.3821 26.008 20.5263 25.65 20.5263H24.3C23.942 20.5263 23.5986 20.3821 23.3454 20.1255C23.0922 19.8689 22.95 19.5208 22.95 19.1579C22.95 18.795 23.0922 18.4469 23.3454 18.1903C23.5986 17.9336 23.942 17.7895 24.3 17.7895H25.65C26.008 17.7895 26.3514 17.9336 26.6046 18.1903C26.8578 18.4469 27 18.795 27 19.1579ZM4.9086 12.3842C5.16321 12.6335 5.50423 12.7714 5.85819 12.7683C6.21216 12.7652 6.55075 12.6213 6.80106 12.3675C7.05136 12.1138 7.19333 11.7706 7.19641 11.4118C7.19949 11.053 7.06341 10.7074 6.8175 10.4493L5.86305 9.48179C5.73852 9.35109 5.58955 9.24684 5.42485 9.17512C5.26014 9.10341 5.08299 9.06566 4.90374 9.06408C4.72449 9.0625 4.54672 9.09712 4.38081 9.16593C4.2149 9.23473 4.06417 9.33634 3.93742 9.46483C3.81066 9.59331 3.71042 9.7461 3.64254 9.91427C3.57466 10.0824 3.5405 10.2626 3.54206 10.4443C3.54362 10.626 3.58086 10.8056 3.65161 10.9726C3.72237 11.1395 3.82521 11.2905 3.95415 11.4167L4.9086 12.3842V12.3842ZM14.85 4.90716V1.36842C14.85 1.00549 14.7078 0.65743 14.4546 0.400801C14.2014 0.144172 13.858 0 13.5 0C13.142 0 12.7986 0.144172 12.5454 0.400801C12.2922 0.65743 12.15 1.00549 12.15 1.36842V4.90716L11.7544 4.50621C11.4998 4.25694 11.1588 4.11901 10.8049 4.12213C10.4509 4.12525 10.1123 4.26916 9.862 4.52288C9.61169 4.7766 9.46972 5.11981 9.46664 5.47861C9.46356 5.8374 9.59964 6.18307 9.84555 6.44116L12.5442 9.17663L12.5577 9.19032C12.8117 9.44271 13.1539 9.58294 13.5095 9.58038C13.8652 9.57781 14.2054 9.43266 14.4558 9.17663L17.1558 6.44116C17.4089 6.18439 17.5511 5.8362 17.5509 5.4732C17.5508 5.1102 17.4084 4.76212 17.1551 4.50553C16.9018 4.24894 16.5583 4.10486 16.2002 4.10499C15.8421 4.10511 15.4987 4.24944 15.2456 4.50621L14.85 4.90716Z" fill="black"/>
</svg>
