<svg width="114" height="115" viewBox="0 0 114 115" fill="none" xmlns="http://www.w3.org/2000/svg">
<path d="M97.6061 45.5479H113.873V53.6814H97.6061V45.5479ZM85.4057 23.5303L96.9066 12.0295L102.657 17.7799L91.1562 29.2808L85.4057 23.5303ZM85.4057 75.6989L91.1562 69.9485L102.657 81.4493L96.9066 87.1997L85.4057 75.6989ZM61.0051 0.813354H69.1386V17.0804H61.0051V0.813354ZM65.0719 25.214C63.7085 25.2229 62.3482 25.3453 61.0051 25.58V33.925C62.3305 33.5596 63.6972 33.3655 65.0719 33.3475C69.3862 33.3475 73.5238 35.0614 76.5744 38.1121C79.6251 41.1627 81.339 45.3003 81.339 49.6146C81.339 53.9289 79.6251 58.0665 76.5744 61.1172C73.5238 64.1679 69.3862 65.8817 65.0719 65.8817V74.0153C71.5433 74.0153 77.7497 71.4445 82.3257 66.8685C86.9017 62.2925 89.4725 56.0861 89.4725 49.6146C89.4725 43.1432 86.9017 36.9368 82.3257 32.3608C77.7497 27.7848 71.5433 25.214 65.0719 25.214ZM32.5377 74.7636V21.1472H24.4041V74.7636C21.6907 75.7229 19.4038 77.6106 17.9476 80.093C16.4914 82.5754 15.9596 85.4927 16.4463 88.3292C16.933 91.1658 18.4068 93.739 20.6072 95.594C22.8076 97.449 25.5929 98.4664 28.4709 98.4664C31.3489 98.4664 34.1343 97.449 36.3347 95.594C38.5351 93.739 40.0089 91.1658 40.4955 88.3292C40.9822 85.4927 40.4504 82.5754 38.9942 80.093C37.538 77.6106 35.2511 75.7229 32.5377 74.7636Z" fill="white"/>
<path d="M28.4709 114.683C22.8668 114.689 17.3858 113.04 12.716 109.941C8.04628 106.843 4.39603 102.434 2.22364 97.2682C0.0512564 92.1022 -0.546423 86.4096 0.505657 80.9051C1.55774 75.4007 4.21267 70.3297 8.13708 66.3291V21.1472C8.13708 15.7543 10.2794 10.5823 14.0927 6.76901C17.9061 2.95567 23.0781 0.813354 28.4709 0.813354C33.8638 0.813354 39.0358 2.95567 42.8492 6.76901C46.6625 10.5823 48.8048 15.7543 48.8048 21.1472V66.3291C52.7292 70.3297 55.3842 75.4007 56.4362 80.9051C57.4883 86.4096 56.8906 92.1022 54.7183 97.2682C52.5459 102.434 48.8956 106.843 44.2259 109.941C39.5561 113.04 34.0751 114.689 28.4709 114.683ZM28.4709 8.9469C25.2362 8.95013 22.1349 10.2366 19.8476 12.5239C17.5603 14.8112 16.2739 17.9125 16.2706 21.1472V69.8794L14.9205 71.0953C11.8496 73.8401 9.68456 77.4527 8.71205 81.4549C7.73953 85.4572 8.00535 89.6605 9.47432 93.5083C10.9433 97.3562 13.5461 100.667 16.9384 103.003C20.3306 105.339 24.3522 106.59 28.4709 106.59C32.5897 106.59 36.6113 105.339 40.0035 103.003C43.3958 100.667 45.9986 97.3562 47.4676 93.5083C48.9365 89.6605 49.2024 85.4572 48.2299 81.4549C47.2573 77.4527 45.0923 73.8401 42.0214 71.0953L40.6713 69.8794V21.1472C40.668 17.9125 39.3816 14.8112 37.0943 12.5239C34.807 10.2366 31.7057 8.95013 28.4709 8.9469Z" fill="white"/>
</svg>
