<svg width="115" height="115" viewBox="0 0 115 115" fill="none" xmlns="http://www.w3.org/2000/svg">
<path d="M63.2419 103.5C64.7669 103.5 66.2295 104.106 67.3079 105.184C68.3863 106.263 68.9921 107.725 68.9921 109.25C68.9921 110.775 68.3863 112.238 67.3079 113.316C66.2295 114.394 64.7669 115 63.2419 115C61.7168 115 60.2542 114.394 59.1758 113.316C58.0974 112.238 57.4916 110.775 57.4916 109.25C57.4916 107.725 58.0974 106.263 59.1758 105.184C60.2542 104.106 61.7168 103.5 63.2419 103.5ZM43.116 97.7501C44.641 97.7501 46.1036 98.3559 47.182 99.4342C48.2604 100.513 48.8662 101.975 48.8662 103.5C48.8662 105.025 48.2604 106.488 47.182 107.566C46.1036 108.644 44.641 109.25 43.116 109.25C41.5909 109.25 40.1283 108.644 39.0499 107.566C37.9715 106.488 37.3657 105.025 37.3657 103.5C37.3657 101.975 37.9715 100.513 39.0499 99.4342C40.1283 98.3559 41.5909 97.7501 43.116 97.7501ZM83.3678 97.7501C84.8929 97.7501 86.3555 98.3559 87.4339 99.4342C88.5122 100.513 89.1181 101.975 89.1181 103.5C89.1181 105.025 88.5122 106.488 87.4339 107.566C86.3555 108.644 84.8929 109.25 83.3678 109.25C81.8427 109.25 80.3801 108.644 79.3018 107.566C78.2234 106.488 77.6175 105.025 77.6175 103.5C77.6175 101.975 78.2234 100.513 79.3018 99.4342C80.3801 98.3559 81.8427 97.7501 83.3678 97.7501ZM63.2534 23.0522C81.4702 23.0522 91.8092 35.1099 93.31 49.6746H93.77C96.5547 49.6708 99.3128 50.2156 101.887 51.2779C104.461 52.3402 106.801 53.8991 108.772 55.8657C110.743 57.8322 112.308 60.1679 113.377 62.7392C114.445 65.3105 114.997 68.0672 115 70.8517C114.996 73.6358 114.444 76.3918 113.375 78.9625C112.306 81.5332 110.741 83.8681 108.77 85.8341C106.799 87.8 104.459 89.3584 101.886 90.4204C99.3119 91.4823 96.5542 92.0269 93.77 92.0231H32.731C29.9468 92.0269 27.1891 91.4823 24.6154 90.4204C22.0417 89.3584 19.7024 87.8 17.731 85.8341C15.7596 83.8681 14.1948 81.5332 13.1258 78.9625C12.0569 76.3918 11.5048 73.6358 11.501 70.8517C11.504 68.0672 12.0556 65.3105 13.1242 62.7392C14.1928 60.1679 15.7575 57.8322 17.729 55.8657C19.7004 53.8991 22.04 52.3402 24.6141 51.2779C27.1882 50.2156 29.9463 49.6708 32.731 49.6746H33.191C34.7033 35.0122 45.0365 23.0522 63.2534 23.0522ZM63.2534 31.6599C51.3388 31.6599 40.9596 41.0554 40.9596 54.0273C40.9596 56.0801 39.1253 57.6958 37.0264 57.6958H33.0587C25.8019 57.6958 19.9251 63.4458 19.9251 70.5527C19.9251 77.6539 25.8019 83.4097 33.053 83.4097H93.448C100.699 83.4097 106.576 77.6597 106.576 70.5527C106.576 63.4515 100.699 57.6958 93.448 57.6958H89.4803C87.3757 57.6958 85.5414 56.0858 85.5414 54.0273C85.5414 40.8886 75.1622 31.6599 63.2534 31.6599ZM13.5998 46.9433C13.9997 47.9063 14.0371 48.9816 13.7052 49.97C13.3732 50.9584 12.6943 51.7931 11.7943 52.3196L11.2652 52.5783L5.94049 54.7863C4.93215 55.1973 3.80567 55.2116 2.78718 54.8265C1.7687 54.4413 0.933608 53.6852 0.449559 52.7099C-0.03449 51.7345 -0.131666 50.6122 0.177538 49.5682C0.486742 48.5242 1.17944 47.6358 2.11657 47.0813L2.63984 46.8169L7.96459 44.6089C8.48789 44.3921 9.04877 44.2805 9.61519 44.2805C10.1816 44.2805 10.7425 44.3921 11.2658 44.6089C11.7891 44.8257 12.2646 45.1434 12.665 45.544C13.0655 45.9445 13.3832 46.42 13.5998 46.9433ZM50.9018 19.1537L49.9185 19.4872C46.9279 20.5354 44.1012 22.0029 41.5231 23.8457C38.7545 22.9465 35.7749 22.9298 32.9964 23.7981C30.2179 24.6664 27.7779 26.3766 26.0141 28.6923C24.2503 31.008 23.2497 33.8145 23.1509 36.7237C23.0522 39.6329 23.86 42.5009 25.4626 44.9309C22.6581 45.7174 20.0023 46.9608 17.602 48.6108C14.9665 44.0812 13.982 38.7783 14.8162 33.6045C15.6504 28.4308 18.2516 23.7059 22.1772 20.234C26.1028 16.7621 31.1102 14.7576 36.3474 14.5617C41.5845 14.3658 46.7277 15.9905 50.9018 19.1595V19.1537ZM5.39997 19.332L6.00374 19.5332L11.3285 21.7412C12.3271 22.1622 13.1306 22.9436 13.5792 23.9301C14.0277 24.9166 14.0884 26.0357 13.7492 27.0649C13.41 28.0941 12.6957 28.9579 11.7485 29.4844C10.8013 30.0109 9.69058 30.1615 8.63737 29.9062L8.02784 29.7107L2.70309 27.5027C1.70183 27.083 0.895707 26.3011 0.44566 25.3132C-0.00438633 24.3252 -0.0652403 23.2039 0.275247 22.173C0.615735 21.1422 1.33251 20.2777 2.28247 19.7521C3.23244 19.2265 4.34569 19.0786 5.39997 19.3377V19.332ZM27.3372 2.16258L27.596 2.68583L29.8041 8.0103C30.221 9.01948 30.2396 10.1493 29.8561 11.1716C29.4726 12.1939 28.7155 13.0328 27.7376 13.5187C26.7598 14.0047 25.634 14.1017 24.5874 13.7901C23.5408 13.4785 22.6515 12.7815 22.0987 11.8398L21.8342 11.3108L19.6261 5.98631C19.2151 4.97802 19.2008 3.85159 19.5859 2.83316C19.9711 1.81473 20.7273 0.979683 21.7027 0.495658C22.678 0.011634 23.8004 -0.0855371 24.8445 0.223651C25.8885 0.53284 26.777 1.2255 27.3315 2.16258H27.3372ZM52.3681 0.328339C53.3228 0.724574 54.1035 1.45052 54.5679 2.37397C55.0322 3.29742 55.1495 4.35693 54.8982 5.35956L54.7027 5.96331L52.4946 11.2878C52.0737 12.2863 51.2922 13.0898 50.3057 13.5384C49.3191 13.9869 48.1999 14.0476 47.1707 13.7084C46.1414 13.3692 45.2776 12.655 44.7511 11.7078C44.2246 10.7606 44.074 9.64996 44.3293 8.5968L44.5305 7.9873L46.7329 2.66283C46.9495 2.13951 47.2672 1.66399 47.6677 1.26344C48.0681 0.862893 48.5436 0.545153 49.0669 0.328369C49.5902 0.111585 50.1511 5.17678e-06 50.7175 1.80129e-10C51.2839 -5.17642e-06 51.8448 0.111565 52.3681 0.328339Z" fill="white"/>
</svg>
