<svg width="135" height="115" viewBox="0 0 135 115" fill="none" xmlns="http://www.w3.org/2000/svg">
<path d="M83.3376 101.125C81.4482 107.144 76.5221 112.081 70.5164 113.975C60.327 117.221 50.6774 112.419 46.2912 104.371C43.9294 99.9756 47.4383 94.7006 52.4318 94.7006H52.4993C54.7936 94.7006 57.088 95.7826 58.1676 97.8115C59.3148 99.9755 61.5416 101.463 64.1733 101.463C67.8847 101.463 70.9213 98.4201 70.9213 94.7006C70.9213 90.981 67.8847 87.9378 64.1733 87.9378H6.74798C3.03659 87.9378 0 84.8945 0 81.175C0 77.4555 3.03659 74.4122 6.74798 74.4122H64.1059C77.3319 74.4122 87.7238 87.2615 83.3376 101.125ZM114.108 18.0782C113.094 13.844 110.931 9.97334 107.858 6.89415C104.786 3.81496 100.924 1.64711 96.6986 0.630214C84.8222 -2.0749 73.9579 4.21449 69.5717 14.0205C67.4799 18.5516 70.7189 23.6913 75.6449 23.6913C78.2766 23.6913 80.7059 22.2035 81.7181 19.8365C82.4818 17.9734 83.7817 16.3803 85.4522 15.2602C87.1226 14.1401 89.088 13.5438 91.0978 13.5471C96.6986 13.5471 101.22 18.0782 101.22 23.6913C101.22 29.3044 96.6986 33.8355 91.0978 33.8355H6.74798C3.03659 33.8355 0 36.8788 0 40.5983C0 44.3178 3.03659 47.3611 6.74798 47.3611H91.0978C105.943 47.3611 117.617 33.565 114.108 18.0782ZM110.667 54.1239H6.74798C3.03659 54.1239 0 57.1671 0 60.8866C0 64.6062 3.03659 67.6494 6.74798 67.6494H111.342C116.943 67.6494 121.464 72.1805 121.464 77.7936C121.467 79.8079 120.872 81.7775 119.754 83.4516C118.637 85.1257 117.047 86.4285 115.188 87.1939C112.759 88.2083 111.342 90.6429 111.342 93.2804C111.342 98.2172 116.47 101.463 120.991 99.4345C125.933 97.2176 129.968 93.3708 132.424 88.5348C134.879 83.6988 135.608 78.1656 134.487 72.8568C132.193 61.7658 121.936 54.1239 110.667 54.1239Z" fill="white"/>
</svg>
